<?xml version="1.0" encoding="UTF-8" standalone="no"?>
<!DOCTYPE svg PUBLIC "-//W3C//DTD SVG 1.1//EN" "http://www.w3.org/Graphics/SVG/1.1/DTD/svg11.dtd">
<!-- 由 Microsoft Visio, SVG Export 生成 活动图.svg Page-1 -->
<svg xmlns="http://www.w3.org/2000/svg" xmlns:xlink="http://www.w3.org/1999/xlink" xmlns:ev="http://www.w3.org/2001/xml-events"
		xmlns:v="http://schemas.microsoft.com/visio/2003/SVGExtensions/" width="11.6929in" height="8.26772in"
		viewBox="0 0 841.89 595.276" xml:space="preserve" color-interpolation-filters="sRGB" class="st26">
	<v:documentProperties v:langID="2052" v:metric="true" v:viewMarkup="false">
		<v:userDefs>
			<v:ud v:nameU="msvNoAutoConnect" v:val="VT0(0):26"/>
		</v:userDefs>
	</v:documentProperties>

	<style type="text/css">
	<![CDATA[
		.st1 {visibility:visible}
		.st2 {fill:#5b9bd5;fill-opacity:0.22;filter:url(#filter_2);stroke:#5b9bd5;stroke-opacity:0.22}
		.st3 {fill:#5b9bd5;stroke:#5b9bd5;stroke-width:0.25}
		.st4 {fill:#5b9bd5;fill-opacity:0.25;filter:url(#filter_2);stroke:#5b9bd5;stroke-opacity:0.25}
		.st5 {fill:#4f87bb;stroke:#40709c;stroke-width:0.75}
		.st6 {fill:#feffff;font-family:黑体;font-size:1.33333em}
		.st7 {marker-end:url(#mrkr12-18);stroke:#5b9bd5;stroke-linecap:round;stroke-linejoin:round;stroke-width:1}
		.st8 {fill:#5b9bd5;fill-opacity:1;stroke:#5b9bd5;stroke-opacity:1;stroke-width:0.28409090909091}
		.st9 {marker-end:url(#mrkr4-24);stroke:#5b9bd5;stroke-linecap:round;stroke-linejoin:round;stroke-width:1}
		.st10 {fill:#5b9bd5;fill-opacity:0.22;filter:url(#filter_2)}
		.st11 {fill:none;filter:url(#filter_2);stroke:#5b9bd5;stroke-opacity:0.22}
		.st12 {fill:#5b9bd5}
		.st13 {stroke:#9cc3e5;stroke-width:2}
		.st14 {fill:#feffff;font-family:黑体;font-size:1.16666em}
		.st15 {font-size:1em}
		.st16 {fill:#5b9bd5;fill-opacity:0.22;filter:url(#filter_2);stroke:#5b9bd5;stroke-linecap:round;stroke-linejoin:round;stroke-opacity:0.22}
		.st17 {fill:#ffffff;stroke:#9cc3e5;stroke-linecap:round;stroke-linejoin:round;stroke-width:2}
		.st18 {fill:#ffffff;stroke:none;stroke-linecap:butt;stroke-width:7.2}
		.st19 {fill:#4f87bb;font-family:黑体;font-size:1.00001em}
		.st20 {fill:#4f88bb;font-family:Calibri;font-size:1.00001em}
		.st21 {fill:url(#grad0-205)}
		.st22 {stroke:#5b9bd5;stroke-width:0.75}
		.st23 {fill:#5b9bd5;stroke:#c7c8c8;stroke-width:0.25}
		.st24 {fill:#5b9bd5;font-family:黑体;font-size:1.00001em}
		.st25 {fill:#4f88bb;font-family:黑体;font-size:1.00001em}
		.st26 {fill:none;fill-rule:evenodd;font-size:12px;overflow:visible;stroke-linecap:square;stroke-miterlimit:3}
	]]>
	</style>

	<defs id="Patterns_And_Gradients">
		<linearGradient id="grad0-205" x1="0" y1="0" x2="1" y2="0" gradientTransform="rotate(60 0.5 0.5)">
			<stop offset="0" stop-color="#e9eff7" stop-opacity="1"/>
			<stop offset="0.24" stop-color="#f4f7fb" stop-opacity="1"/>
			<stop offset="0.54" stop-color="#feffff" stop-opacity="1"/>
		</linearGradient>
	</defs>
	<defs id="Markers">
		<g id="lend12">
			<path d="M 3 1 L 0 0 L 3 -1 " style="stroke-linecap:round;stroke-linejoin:round;fill:none"/>
		</g>
		<marker id="mrkr12-18" class="st8" v:arrowType="12" v:arrowSize="2" orient="auto" markerUnits="strokeWidth"
				overflow="visible">
			<use xlink:href="#lend12" transform="scale(-3.52,-3.52) "/>
		</marker>
		<g id="lend4">
			<path d="M 2 1 L 0 0 L 2 -1 L 2 1 " style="stroke:none"/>
		</g>
		<marker id="mrkr4-24" class="st8" v:arrowType="4" v:arrowSize="2" v:setback="7.04" refX="-7.04" orient="auto"
				markerUnits="strokeWidth" overflow="visible">
			<use xlink:href="#lend4" transform="scale(-3.52,-3.52) "/>
		</marker>
	</defs>
	<defs id="Filters">
		<filter id="filter_2">
			<feGaussianBlur stdDeviation="2"/>
		</filter>
	</defs>
	<g v:mID="0" v:index="1" v:groupContext="foregroundPage">
		<v:userDefs>
			<v:ud v:nameU="msvThemeOrder" v:val="VT0(0):26"/>
		</v:userDefs>
		<title>页-1</title>
		<v:pageProperties v:drawingScale="0.0393701" v:pageScale="0.0393701" v:drawingUnits="24" v:shadowOffsetX="8.50394"
				v:shadowOffsetY="-8.50394"/>
		<v:layer v:name="连接线" v:index="0"/>
		<g id="shape1-1" v:mID="1" v:groupContext="shape" transform="translate(113.386,-510.236)">
			<title>初始节点</title>
			<v:userDefs>
				<v:ud v:nameU="visVersion" v:prompt="" v:val="VT0(15):26"/>
			</v:userDefs>
			<g id="shadow1-2" v:groupContext="shadow" v:shadowOffsetX="0.345598" v:shadowOffsetY="-1.97279" v:shadowType="1"
					transform="matrix(1,0,0,1,0.345598,1.97279)" class="st1">
				<ellipse cx="17.0079" cy="578.268" rx="17.0079" ry="17.0079" class="st2"/>
			</g>
			<ellipse cx="17.0079" cy="578.268" rx="17.0079" ry="17.0079" class="st3"/>
		</g>
		<g id="shape2-6" v:mID="2" v:groupContext="shape" transform="translate(73.7008,-413.858)">
			<title>动作</title>
			<desc>提取数据</desc>
			<v:userDefs>
				<v:ud v:nameU="visVersion" v:prompt="" v:val="VT0(15):26"/>
			</v:userDefs>
			<v:textBlock v:margins="rect(4,4,4,4)" v:tabSpace="42.5197"/>
			<v:textRect cx="56.6929" cy="578.268" width="113.39" height="34.0157"/>
			<g id="shadow2-7" v:groupContext="shadow" v:shadowOffsetX="0.345598" v:shadowOffsetY="-1.97279" v:shadowType="1"
					transform="matrix(1,0,0,1,0.345598,1.97279)" class="st1">
				<rect x="0" y="561.26" width="113.386" height="34.0157" rx="8.50394" ry="8.50394" class="st4"/>
			</g>
			<rect x="0" y="561.26" width="113.386" height="34.0157" rx="8.50394" ry="8.50394" class="st5"/>
			<text x="24.69" y="583.59" class="st6" v:langID="2052"><v:paragraph v:horizAlign="1"/><v:tabList/>提取数据</text>		</g>
		<g id="group10-12" transform="translate(123.307,-510.236)" v:mID="10" v:groupContext="group" v:layerMember="0">
			<v:userDefs>
				<v:ud v:nameU="visVersion" v:prompt="" v:val="VT0(15):26"/>
				<v:ud v:nameU="RelationshipName" v:prompt="" v:val="VT4()"/>
				<v:ud v:nameU="ShowMulti" v:prompt="" v:val="VT0(0):26"/>
				<v:ud v:nameU="Identifying" v:prompt="" v:val="VT0(1):26"/>
				<v:ud v:nameU="DXBegin" v:prompt="" v:val="VT0(0):1"/>
				<v:ud v:nameU="DYBegin" v:prompt="" v:val="VT0(-0.029527559055118):1"/>
				<v:ud v:nameU="DXEnd" v:prompt="" v:val="VT0(0.029527559055118):1"/>
				<v:ud v:nameU="DYEnd" v:prompt="" v:val="VT0(0):1"/>
				<v:ud v:nameU="BeginAngle" v:prompt="" v:val="VT0(-1.5707963267949):32"/>
				<v:ud v:nameU="EndAngle" v:prompt="" v:val="VT0(0):32"/>
				<v:ud v:nameU="DXBegin" v:prompt="" v:val="VT0(0):24"/>
				<v:ud v:nameU="DYBegin" v:prompt="" v:val="VT0(-0.012992125984251):24"/>
				<v:ud v:nameU="DXEnd" v:prompt="" v:val="VT0(0):24"/>
				<v:ud v:nameU="DYEnd" v:prompt="" v:val="VT0(-0.01299212598425):24"/>
				<v:ud v:nameU="EndAngle" v:prompt="" v:val="VT0(-1.5707963267949):32"/>
			</v:userDefs>
			<title>直接关联</title>
			<g id="shape10-13" v:mID="10" v:groupContext="groupContent" v:layerMember="0">
				<path d="M7.09 595.28 L7.09 657.64" class="st7"/>
			</g>
		</g>
		<g id="shape16-19" v:mID="16" v:groupContext="shape" v:layerMember="0" transform="translate(123.307,-413.858)">
			<title>动态连接线</title>
			<path d="M7.09 595.28 L7.09 642.09" class="st9"/>
		</g>
		<g id="group3-25" transform="translate(229.606,-411.677)" v:mID="3" v:groupContext="group">
			<v:userDefs>
				<v:ud v:nameU="visVersion" v:prompt="" v:val="VT0(15):26"/>
				<v:ud v:nameU="msvStructureType" v:prompt="" v:val="VT4(Callout)"/>
				<v:ud v:nameU="msvSDTargetIntersection" v:prompt=""/>
				<v:ud v:nameU="msvSDCalloutNoHighlight" v:prompt="" v:val="VT0(0):5"/>
				<v:ud v:nameU="msvShapeCategories" v:prompt="" v:val="VT0(0):26"/>
				<v:ud v:nameU="Side" v:prompt="" v:val="VT0(4):26"/>
				<v:ud v:nameU="LeaderEnd" v:prompt="" v:val="VT7(PNT(6.25MM,-0.28346456692913)):40"/>
				<v:ud v:nameU="WHBoxIntersection" v:prompt="" v:val="VT7(PNT(10.096153846154MM,0)):40"/>
				<v:ud v:nameU="FoldSize" v:prompt="" v:val="VT0(0.11811023622047):24"/>
				<v:ud v:nameU="msvSDTargetIntersection" v:prompt="" v:val="VT7(PNT(-0.63538233796289,0.47726000387148)):40"/>
				<v:ud v:nameU="Side" v:prompt="" v:val="VT0(3):26"/>
				<v:ud v:nameU="LeaderEnd" v:prompt="" v:val="VT7(PNT(-0.63538233796289,0.47726000387148)):40"/>
				<v:ud v:nameU="WHBoxIntersection" v:prompt="" v:val="VT7(PNT(0MM,16.70253072292MM)):40"/>
			</v:userDefs>
			<title>注释</title>
			<desc>从数据库中选择一个序列以及该序列对应的单词</desc>
			<g id="shape3-26" v:mID="3" v:groupContext="groupContent">
				<v:textBlock v:margins="rect(4,4,4,4)" v:tabSpace="42.5197"/>
				<v:textRect cx="35.4331" cy="537.874" width="70.87" height="110.64"/>
				<g id="shadow3-27" v:groupContext="shadow" v:shadowOffsetX="0.345598" v:shadowOffsetY="-1.97279" v:shadowType="1"
						transform="matrix(1,0,0,1,0.345598,1.97279)" class="st1">
					<path d="M0 595.28 L70.87 595.28 L70.87 488.98 L62.36 480.47 L0 480.47 L0 595.28 Z" class="st10"/>
					<path d="M0 547.93 L-45.75 560.91" class="st11"/>
					<path d="M0 595.28 L70.87 595.28 L70.87 488.98 L62.36 480.47 L0 480.47 L0 595.28" class="st11"/>
				</g>
				<path d="M0 595.28 L70.87 595.28 L70.87 488.98 L62.36 480.47 L0 480.47 L0 595.28 Z" class="st12"/>
				<path d="M0 547.93 L-45.75 560.91" class="st13"/>
				<path d="M0 595.28 L70.87 595.28 L70.87 488.98 L62.36 480.47 L0 480.47 L0 595.28" class="st13"/>
				<text x="4" y="499.16" class="st14" v:langID="2052"><v:paragraph/><v:tabList/>从数据库<tspan x="4" dy="1.2em"
							class="st15">中选择一</tspan><tspan x="4" dy="1.2em" class="st15">个序列</tspan>，<tspan x="4" dy="1.2em"
							class="st15">以及该序</tspan><tspan x="4" dy="1.2em" class="st15">列对应的</tspan><tspan x="4" dy="1.298em"
							class="st15">单词</tspan></text>			</g>
			<g id="shape4-42" v:mID="4" v:groupContext="shape" transform="translate(62.3622,-106.299)">
				<title>工作表.4</title>
				<v:userDefs>
					<v:ud v:nameU="FoldSize" v:prompt="" v:val="VT0(0.11811023622047):24"/>
				</v:userDefs>
				<g id="shadow4-43" v:groupContext="shadow" v:shadowOffsetX="0.345598" v:shadowOffsetY="-1.97279" v:shadowType="1"
						transform="matrix(1,0,0,1,0.345598,1.97279)" class="st1">
					<path d="M0 595.28 L8.5 595.28 L8.5 596.13 L8.5 595.28 L0 586.77 L-0.85 586.77 L0 586.77 L0 595.28 Z"
							class="st16"/>
				</g>
				<path d="M0 595.28 L8.5 595.28 L8.5 596.13 L8.5 595.28 L0 586.77 L-0.85 586.77 L0 586.77 L0 595.28 Z" class="st17"/>
			</g>
		</g>
		<g id="shape15-47" v:mID="15" v:groupContext="shape" transform="translate(73.7008,-325.984)">
			<title>动作.15</title>
			<desc>格式化数据</desc>
			<v:userDefs>
				<v:ud v:nameU="visVersion" v:prompt="" v:val="VT0(15):26"/>
			</v:userDefs>
			<v:textBlock v:margins="rect(4,4,4,4)" v:tabSpace="42.5197"/>
			<v:textRect cx="56.6929" cy="578.268" width="113.39" height="34.0157"/>
			<g id="shadow15-48" v:groupContext="shadow" v:shadowOffsetX="0.345598" v:shadowOffsetY="-1.97279" v:shadowType="1"
					transform="matrix(1,0,0,1,0.345598,1.97279)" class="st1">
				<rect x="0" y="561.26" width="113.386" height="34.0157" rx="8.50394" ry="8.50394" class="st4"/>
			</g>
			<rect x="0" y="561.26" width="113.386" height="34.0157" rx="8.50394" ry="8.50394" class="st5"/>
			<text x="16.69" y="583.59" class="st6" v:langID="2052"><v:paragraph v:horizAlign="1"/><v:tabList/>格式化数据</text>		</g>
		<g id="shape20-53" v:mID="20" v:groupContext="shape" v:layerMember="0" transform="translate(123.307,-325.984)">
			<title>动态连接线.20</title>
			<path d="M7.09 595.28 L7.09 647.76" class="st9"/>
		</g>
		<g id="group17-58" transform="translate(229.606,-296.22)" v:mID="17" v:groupContext="group">
			<v:userDefs>
				<v:ud v:nameU="visVersion" v:prompt="" v:val="VT0(15):26"/>
				<v:ud v:nameU="msvStructureType" v:prompt="" v:val="VT4(Callout)"/>
				<v:ud v:nameU="msvSDTargetIntersection" v:prompt=""/>
				<v:ud v:nameU="msvSDCalloutNoHighlight" v:prompt="" v:val="VT0(0):5"/>
				<v:ud v:nameU="msvShapeCategories" v:prompt="" v:val="VT0(0):26"/>
				<v:ud v:nameU="Side" v:prompt="" v:val="VT0(4):26"/>
				<v:ud v:nameU="LeaderEnd" v:prompt="" v:val="VT7(PNT(6.25MM,-0.28346456692913)):40"/>
				<v:ud v:nameU="WHBoxIntersection" v:prompt="" v:val="VT7(PNT(10.096153846154MM,0)):40"/>
				<v:ud v:nameU="FoldSize" v:prompt="" v:val="VT0(0.11811023622047):24"/>
				<v:ud v:nameU="msvSDTargetIntersection" v:prompt="" v:val="VT7(PNT(-0.59055121677128,0.56257770804513)):40"/>
				<v:ud v:nameU="Side" v:prompt="" v:val="VT0(3):26"/>
				<v:ud v:nameU="LeaderEnd" v:prompt="" v:val="VT7(PNT(-0.59055121677128,0.56257770804513)):40"/>
				<v:ud v:nameU="WHBoxIntersection" v:prompt="" v:val="VT7(PNT(0MM,12.631578947368MM)):40"/>
			</v:userDefs>
			<title>注释.17</title>
			<desc>按照特定的数据格式处理</desc>
			<g id="shape17-59" v:mID="17" v:groupContext="groupContent">
				<v:textBlock v:margins="rect(4,4,4,4)" v:tabSpace="42.5197"/>
				<v:textRect cx="35.4331" cy="563.386" width="70.87" height="60.2406"/>
				<g id="shadow17-60" v:groupContext="shadow" v:shadowOffsetX="0.345598" v:shadowOffsetY="-1.97279" v:shadowType="1"
						transform="matrix(1,0,0,1,0.345598,1.97279)" class="st1">
					<path d="M0 595.28 L70.87 595.28 L70.87 540 L62.36 531.5 L0 531.5 L0 595.28 Z" class="st10"/>
					<path d="M0 559.47 L-42.52 554.77" class="st11"/>
					<path d="M0 595.28 L70.87 595.28 L70.87 540 L62.36 531.5 L0 531.5 L0 595.28" class="st11"/>
				</g>
				<path d="M0 595.28 L70.87 595.28 L70.87 540 L62.36 531.5 L0 531.5 L0 595.28 Z" class="st12"/>
				<path d="M0 559.47 L-42.52 554.77" class="st13"/>
				<path d="M0 595.28 L70.87 595.28 L70.87 540 L62.36 531.5 L0 531.5 L0 595.28" class="st13"/>
				<text x="4" y="549.87" class="st14" v:langID="2052"><v:paragraph/><v:tabList/>按照特定<tspan x="4" dy="1.2em"
							class="st15">的数据格</tspan><tspan x="4" dy="1.298em" class="st15">式处理</tspan></text>			</g>
			<g id="shape18-72" v:mID="18" v:groupContext="shape" transform="translate(62.3622,-55.2756)">
				<title>工作表.18</title>
				<v:userDefs>
					<v:ud v:nameU="FoldSize" v:prompt="" v:val="VT0(0.11811023622047):24"/>
				</v:userDefs>
				<g id="shadow18-73" v:groupContext="shadow" v:shadowOffsetX="0.345598" v:shadowOffsetY="-1.97279" v:shadowType="1"
						transform="matrix(1,0,0,1,0.345598,1.97279)" class="st1">
					<path d="M0 595.28 L8.5 595.28 L8.5 596.13 L8.5 595.28 L0 586.77 L-0.85 586.77 L0 586.77 L0 595.28 Z"
							class="st16"/>
				</g>
				<path d="M0 595.28 L8.5 595.28 L8.5 596.13 L8.5 595.28 L0 586.77 L-0.85 586.77 L0 586.77 L0 595.28 Z" class="st17"/>
			</g>
		</g>
		<g id="shape19-77" v:mID="19" v:groupContext="shape" transform="translate(73.7008,-232.441)">
			<title>动作.19</title>
			<desc>开启服务端</desc>
			<v:userDefs>
				<v:ud v:nameU="visVersion" v:prompt="" v:val="VT0(15):26"/>
			</v:userDefs>
			<v:textBlock v:margins="rect(4,4,4,4)" v:tabSpace="42.5197"/>
			<v:textRect cx="56.6929" cy="578.268" width="113.39" height="34.0157"/>
			<g id="shadow19-78" v:groupContext="shadow" v:shadowOffsetX="0.345598" v:shadowOffsetY="-1.97279" v:shadowType="1"
					transform="matrix(1,0,0,1,0.345598,1.97279)" class="st1">
				<rect x="0" y="561.26" width="113.386" height="34.0157" rx="8.50394" ry="8.50394" class="st4"/>
			</g>
			<rect x="0" y="561.26" width="113.386" height="34.0157" rx="8.50394" ry="8.50394" class="st5"/>
			<text x="16.69" y="583.59" class="st6" v:langID="2052"><v:paragraph v:horizAlign="1"/><v:tabList/>开启服务端</text>		</g>
		<g id="shape28-83" v:mID="28" v:groupContext="shape" v:layerMember="0" transform="translate(123.307,-232.441)">
			<title>动态连接线.28</title>
			<path d="M7.09 595.28 L7.09 653.43" class="st9"/>
		</g>
		<g id="shape27-88" v:mID="27" v:groupContext="shape" transform="translate(283.465,-133.228)">
			<title>动作.27</title>
			<desc>准备发送数据</desc>
			<v:userDefs>
				<v:ud v:nameU="visVersion" v:prompt="" v:val="VT0(15):26"/>
			</v:userDefs>
			<v:textBlock v:margins="rect(4,4,4,4)" v:tabSpace="42.5197"/>
			<v:textRect cx="56.6929" cy="578.268" width="113.39" height="34.0157"/>
			<g id="shadow27-89" v:groupContext="shadow" v:shadowOffsetX="0.345598" v:shadowOffsetY="-1.97279" v:shadowType="1"
					transform="matrix(1,0,0,1,0.345598,1.97279)" class="st1">
				<rect x="0" y="561.26" width="113.386" height="34.0157" rx="8.50394" ry="8.50394" class="st4"/>
			</g>
			<rect x="0" y="561.26" width="113.386" height="34.0157" rx="8.50394" ry="8.50394" class="st5"/>
			<text x="8.69" y="583.59" class="st6" v:langID="2052"><v:paragraph v:horizAlign="1"/><v:tabList/>准备发送数据</text>		</g>
		<g id="group31-94" transform="translate(342.992,-218.268)" v:mID="31" v:groupContext="group">
			<v:userDefs>
				<v:ud v:nameU="visVersion" v:prompt="" v:val="VT0(15):26"/>
				<v:ud v:nameU="msvStructureType" v:prompt="" v:val="VT4(Callout)"/>
				<v:ud v:nameU="msvSDTargetIntersection" v:prompt=""/>
				<v:ud v:nameU="msvSDCalloutNoHighlight" v:prompt="" v:val="VT0(0):5"/>
				<v:ud v:nameU="msvShapeCategories" v:prompt="" v:val="VT0(0):26"/>
				<v:ud v:nameU="Side" v:prompt="" v:val="VT0(4):26"/>
				<v:ud v:nameU="LeaderEnd" v:prompt="" v:val="VT7(PNT(6.25MM,-0.28346456692913)):40"/>
				<v:ud v:nameU="WHBoxIntersection" v:prompt="" v:val="VT7(PNT(10.096153846154MM,0)):40"/>
				<v:ud v:nameU="FoldSize" v:prompt="" v:val="VT0(0.11811023622047):24"/>
				<v:ud v:nameU="msvSDTargetIntersection" v:prompt="" v:val="VT7(PNT(0.021372331838104,-0.70866140418165)):40"/>
				<v:ud v:nameU="LeaderEnd" v:prompt="" v:val="VT7(PNT(0.021372331838104,-0.70866140418165)):40"/>
				<v:ud v:nameU="WHBoxIntersection" v:prompt="" v:val="VT7(PNT(5.1714285714286MM,0)):40"/>
			</v:userDefs>
			<title>注释.31</title>
			<desc>每一个客户端建议一个连接准备异步发送数据准备好数据后等待发送信号</desc>
			<g id="shape31-95" v:mID="31" v:groupContext="groupContent">
				<v:textBlock v:margins="rect(4,4,4,4)" v:tabSpace="42.5197"/>
				<v:textRect cx="35.4331" cy="514.488" width="70.87" height="161.04"/>
				<g id="shadow31-96" v:groupContext="shadow" v:shadowOffsetX="0.345598" v:shadowOffsetY="-1.97279" v:shadowType="1"
						transform="matrix(1,0,0,1,0.345598,1.97279)" class="st1">
					<path d="M0 595.28 L70.87 595.28 L70.87 442.2 L62.36 433.7 L0 433.7 L0 595.28 Z" class="st10"/>
					<path d="M14.66 595.28 L1.54 646.3" class="st11"/>
					<path d="M0 595.28 L70.87 595.28 L70.87 442.2 L62.36 433.7 L0 433.7 L0 595.28" class="st11"/>
				</g>
				<path d="M0 595.28 L70.87 595.28 L70.87 442.2 L62.36 433.7 L0 433.7 L0 595.28 Z" class="st12"/>
				<path d="M14.66 595.28 L1.54 646.3" class="st13"/>
				<path d="M0 595.28 L70.87 595.28 L70.87 442.2 L62.36 433.7 L0 433.7 L0 595.28" class="st13"/>
				<text x="4" y="450.57" class="st14" v:langID="2052"><v:paragraph/><v:tabList/>每一个客<tspan x="4" dy="1.2em"
							class="st15">户端建议</tspan><tspan x="4" dy="1.2em" class="st15">一个连</tspan><tspan x="4" dy="1.2em"
							class="st15">接</tspan>，准备<tspan x="4" dy="1.2em" class="st15">异步发送</tspan><tspan x="4" dy="1.2em"
							class="st15">数据</tspan>，准<tspan x="4" dy="1.2em" class="st15">备好数据</tspan><tspan x="4" dy="1.2em"
							class="st15">后等待发</tspan><tspan x="4" dy="1.298em" class="st15">送信号</tspan></text>			</g>
			<g id="shape32-114" v:mID="32" v:groupContext="shape" transform="translate(62.3622,-153.071)">
				<title>工作表.32</title>
				<v:userDefs>
					<v:ud v:nameU="FoldSize" v:prompt="" v:val="VT0(0.11811023622047):24"/>
				</v:userDefs>
				<g id="shadow32-115" v:groupContext="shadow" v:shadowOffsetX="0.345598" v:shadowOffsetY="-1.97279" v:shadowType="1"
						transform="matrix(1,0,0,1,0.345598,1.97279)" class="st1">
					<path d="M0 595.28 L8.5 595.28 L8.5 596.13 L8.5 595.28 L0 586.77 L-0.85 586.77 L0 586.77 L0 595.28 Z"
							class="st16"/>
				</g>
				<path d="M0 595.28 L8.5 595.28 L8.5 596.13 L8.5 595.28 L0 586.77 L-0.85 586.77 L0 586.77 L0 595.28 Z" class="st17"/>
			</g>
		</g>
		<g id="shape33-119" v:mID="33" v:groupContext="shape" transform="translate(73.7008,-133.228)">
			<title>动作.33</title>
			<desc>确认玩家</desc>
			<v:userDefs>
				<v:ud v:nameU="visVersion" v:prompt="" v:val="VT0(15):26"/>
			</v:userDefs>
			<v:textBlock v:margins="rect(4,4,4,4)" v:tabSpace="42.5197"/>
			<v:textRect cx="56.6929" cy="578.268" width="113.39" height="34.0157"/>
			<g id="shadow33-120" v:groupContext="shadow" v:shadowOffsetX="0.345598" v:shadowOffsetY="-1.97279" v:shadowType="1"
					transform="matrix(1,0,0,1,0.345598,1.97279)" class="st1">
				<rect x="0" y="561.26" width="113.386" height="34.0157" rx="8.50394" ry="8.50394" class="st4"/>
			</g>
			<rect x="0" y="561.26" width="113.386" height="34.0157" rx="8.50394" ry="8.50394" class="st5"/>
			<text x="24.69" y="583.59" class="st6" v:langID="2052"><v:paragraph v:horizAlign="1"/><v:tabList/>确认玩家</text>		</g>
		<g id="shape36-125" v:mID="36" v:groupContext="shape" v:layerMember="0" transform="translate(396.85,-143.15)">
			<title>动态连接线.36</title>
			<path d="M0 588.19 L92.17 588.19" class="st9"/>
		</g>
		<g id="shape35-130" v:mID="35" v:groupContext="shape" transform="translate(496.063,-133.228)">
			<title>动作.35</title>
			<desc>确认发送数据</desc>
			<v:userDefs>
				<v:ud v:nameU="visVersion" v:prompt="" v:val="VT0(15):26"/>
			</v:userDefs>
			<v:textBlock v:margins="rect(4,4,4,4)" v:tabSpace="42.5197"/>
			<v:textRect cx="56.6929" cy="578.268" width="113.39" height="34.0157"/>
			<g id="shadow35-131" v:groupContext="shadow" v:shadowOffsetX="0.345598" v:shadowOffsetY="-1.97279" v:shadowType="1"
					transform="matrix(1,0,0,1,0.345598,1.97279)" class="st1">
				<rect x="0" y="561.26" width="113.386" height="34.0157" rx="8.50394" ry="8.50394" class="st4"/>
			</g>
			<rect x="0" y="561.26" width="113.386" height="34.0157" rx="8.50394" ry="8.50394" class="st5"/>
			<text x="8.69" y="583.59" class="st6" v:langID="2052"><v:paragraph v:horizAlign="1"/><v:tabList/>确认发送数据</text>		</g>
		<g id="shape39-136" v:mID="39" v:groupContext="shape" v:layerMember="0" transform="translate(147.402,-85.0394)">
			<title>动态连接线.39</title>
			<desc>有玩家信息</desc>
			<v:textBlock v:margins="rect(4,4,4,4)" v:tabSpace="42.5197"/>
			<v:textRect cx="120.472" cy="595.276" width="70.72" height="23.9788"/>
			<path d="M0 595.28 L192.76 595.28 L192.76 554.13" class="st9"/>
			<rect v:rectContext="textBkgnd" x="90.4723" y="587.288" width="60.0005" height="15.9752" class="st18"/>
			<text x="90.47" y="599.27" class="st19" v:langID="2052"><v:paragraph v:horizAlign="1"/><v:tabList/>有玩家信息</text>		</g>
		<g id="shape41-143" v:mID="41" v:groupContext="shape" v:layerMember="0" transform="translate(545.669,-167.244)">
			<title>动态连接线.41</title>
			<path d="M7.09 595.28 L7.09 539.95" class="st9"/>
		</g>
		<g id="shape40-148" v:mID="40" v:groupContext="shape" transform="translate(496.063,-229.606)">
			<title>动作.40</title>
			<desc>开始计时</desc>
			<v:userDefs>
				<v:ud v:nameU="visVersion" v:prompt="" v:val="VT0(15):26"/>
			</v:userDefs>
			<v:textBlock v:margins="rect(4,4,4,4)" v:tabSpace="42.5197"/>
			<v:textRect cx="56.6929" cy="578.268" width="113.39" height="34.0157"/>
			<g id="shadow40-149" v:groupContext="shadow" v:shadowOffsetX="0.345598" v:shadowOffsetY="-1.97279" v:shadowType="1"
					transform="matrix(1,0,0,1,0.345598,1.97279)" class="st1">
				<rect x="0" y="561.26" width="113.386" height="34.0157" rx="8.50394" ry="8.50394" class="st4"/>
			</g>
			<rect x="0" y="561.26" width="113.386" height="34.0157" rx="8.50394" ry="8.50394" class="st5"/>
			<text x="24.69" y="583.59" class="st6" v:langID="2052"><v:paragraph v:horizAlign="1"/><v:tabList/>开始计时</text>		</g>
		<g id="shape43-154" v:mID="43" v:groupContext="shape" v:layerMember="0" transform="translate(545.669,-263.622)">
			<title>动态连接线.43</title>
			<desc>1 minute</desc>
			<v:textBlock v:margins="rect(4,4,4,4)" v:tabSpace="42.5197"/>
			<v:textRect cx="7.08661" cy="564.094" width="60" height="22.4037"/>
			<path d="M7.09 595.28 L7.09 532.91" class="st7"/>
			<rect v:rectContext="textBkgnd" x="-14.7808" y="556.895" width="43.7349" height="14.4001" class="st18"/>
			<text x="-14.78" y="567.69" class="st20" v:langID="2052"><v:paragraph v:horizAlign="1"/><v:tabList/>1 minute</text>		</g>
		<g id="shape42-161" v:mID="42" v:groupContext="shape" transform="translate(496.063,-325.984)">
			<title>动作.42</title>
			<desc>收集玩家数据</desc>
			<v:userDefs>
				<v:ud v:nameU="visVersion" v:prompt="" v:val="VT0(15):26"/>
			</v:userDefs>
			<v:textBlock v:margins="rect(4,4,4,4)" v:tabSpace="42.5197"/>
			<v:textRect cx="56.6929" cy="578.268" width="113.39" height="34.0157"/>
			<g id="shadow42-162" v:groupContext="shadow" v:shadowOffsetX="0.345598" v:shadowOffsetY="-1.97279" v:shadowType="1"
					transform="matrix(1,0,0,1,0.345598,1.97279)" class="st1">
				<rect x="0" y="561.26" width="113.386" height="34.0157" rx="8.50394" ry="8.50394" class="st4"/>
			</g>
			<rect x="0" y="561.26" width="113.386" height="34.0157" rx="8.50394" ry="8.50394" class="st5"/>
			<text x="8.69" y="583.59" class="st6" v:langID="2052"><v:paragraph v:horizAlign="1"/><v:tabList/>收集玩家数据</text>		</g>
		<g id="shape45-167" v:mID="45" v:groupContext="shape" v:layerMember="0" transform="translate(545.669,-360)">
			<title>动态连接线.45</title>
			<path d="M7.09 595.28 L7.09 555.7" class="st9"/>
		</g>
		<g id="shape44-172" v:mID="44" v:groupContext="shape" transform="translate(496.063,-406.614)">
			<title>动作.44</title>
			<desc>统计玩家得分排序</desc>
			<v:userDefs>
				<v:ud v:nameU="visVersion" v:prompt="" v:val="VT0(15):26"/>
			</v:userDefs>
			<v:textBlock v:margins="rect(4,4,4,4)" v:tabSpace="42.5197"/>
			<v:textRect cx="56.6929" cy="571.024" width="113.39" height="48.5036"/>
			<g id="shadow44-173" v:groupContext="shadow" v:shadowOffsetX="0.345598" v:shadowOffsetY="-1.97279" v:shadowType="1"
					transform="matrix(1,0,0,1,0.345598,1.97279)" class="st1">
				<rect x="0" y="546.772" width="113.386" height="48.5036" rx="8.50394" ry="8.50394" class="st4"/>
			</g>
			<rect x="0" y="546.772" width="113.386" height="48.5036" rx="8.50394" ry="8.50394" class="st5"/>
			<text x="16.69" y="565.17" class="st6" v:langID="2052"><v:paragraph v:horizAlign="1"/><v:tabList/>统计玩家得<tspan x="24.69"
						dy="1.298em" class="st15">分</tspan>，排序</text>		</g>
		<g id="shape47-179" v:mID="47" v:groupContext="shape" v:layerMember="0" transform="translate(609.449,-423.78)">
			<title>动态连接线.47</title>
			<path d="M0 588.19 L63.83 588.19" class="st9"/>
		</g>
		<g id="shape46-184" v:mID="46" v:groupContext="shape" transform="translate(680.315,-406.614)">
			<title>动作.46</title>
			<desc>格式化排序结果数据</desc>
			<v:userDefs>
				<v:ud v:nameU="visVersion" v:prompt="" v:val="VT0(15):26"/>
			</v:userDefs>
			<v:textBlock v:margins="rect(4,4,4,4)" v:tabSpace="42.5197"/>
			<v:textRect cx="56.6929" cy="571.024" width="113.39" height="48.5036"/>
			<g id="shadow46-185" v:groupContext="shadow" v:shadowOffsetX="0.345598" v:shadowOffsetY="-1.97279" v:shadowType="1"
					transform="matrix(1,0,0,1,0.345598,1.97279)" class="st1">
				<rect x="0" y="546.772" width="113.386" height="48.5036" rx="8.50394" ry="8.50394" class="st4"/>
			</g>
			<rect x="0" y="546.772" width="113.386" height="48.5036" rx="8.50394" ry="8.50394" class="st5"/>
			<text x="8.69" y="565.17" class="st6" v:langID="2052"><v:paragraph v:horizAlign="1"/><v:tabList/>格式化排序结<tspan x="32.69"
						dy="1.298em" class="st15">果数据</tspan></text>		</g>
		<g id="shape49-191" v:mID="49" v:groupContext="shape" v:layerMember="0" transform="translate(729.921,-406.614)">
			<title>动态连接线.49</title>
			<path d="M7.09 595.28 L7.09 634.85" class="st9"/>
		</g>
		<g id="shape48-196" v:mID="48" v:groupContext="shape" transform="translate(680.315,-325.984)">
			<title>动作.48</title>
			<desc>发送结果数据</desc>
			<v:userDefs>
				<v:ud v:nameU="visVersion" v:prompt="" v:val="VT0(15):26"/>
			</v:userDefs>
			<v:textBlock v:margins="rect(4,4,4,4)" v:tabSpace="42.5197"/>
			<v:textRect cx="56.6929" cy="578.268" width="113.39" height="34.0157"/>
			<g id="shadow48-197" v:groupContext="shadow" v:shadowOffsetX="0.345598" v:shadowOffsetY="-1.97279" v:shadowType="1"
					transform="matrix(1,0,0,1,0.345598,1.97279)" class="st1">
				<rect x="0" y="561.26" width="113.386" height="34.0157" rx="8.50394" ry="8.50394" class="st4"/>
			</g>
			<rect x="0" y="561.26" width="113.386" height="34.0157" rx="8.50394" ry="8.50394" class="st5"/>
			<text x="8.69" y="583.59" class="st6" v:langID="2052"><v:paragraph v:horizAlign="1"/><v:tabList/>发送结果数据</text>		</g>
		<g id="shape52-202" v:mID="52" v:groupContext="shape" transform="translate(720,-212.598)">
			<title>最后一个节点</title>
			<v:userDefs>
				<v:ud v:nameU="visVersion" v:prompt="" v:val="VT0(15):26"/>
			</v:userDefs>
			<path d="M30.61 578.27 A13.6063 13.6063 -180 1 0 3.4 578.27 A13.6063 13.6063 -180 1 0 30.61 578.27 Z" class="st21"/>
			<path d="M34.02 578.27 A17.0079 17.0079 -180 1 0 0 578.27 A17.0079 17.0079 -180 1 0 34.02 578.27" class="st22"/>
			<path d="M30.61 578.27 A13.6063 13.6063 -180 1 0 3.4 578.27 A13.6063 13.6063 -180 1 0 30.61 578.27" class="st22"/>
		</g>
		<g id="shape57-208" v:mID="57" v:groupContext="shape" v:layerMember="0" transform="translate(729.921,-325.984)">
			<title>动态连接线.57</title>
			<path d="M7.09 595.28 L7.09 667.61" class="st9"/>
		</g>
		<g id="shape59-213" v:mID="59" v:groupContext="shape" v:layerMember="0" transform="translate(123.307,-133.228)">
			<title>动态连接线.59</title>
			<path d="M7.09 595.28 L7.09 619.42" class="st9"/>
		</g>
		<g id="shape58-218" v:mID="58" v:groupContext="shape" transform="translate(113.386,-68.0315)">
			<title>合并节点</title>
			<desc>有无玩家</desc>
			<v:userDefs>
				<v:ud v:nameU="visVersion" v:prompt="" v:val="VT0(15):26"/>
			</v:userDefs>
			<v:textBlock v:margins="rect(4,4,4,4)" v:tabSpace="42.5197"/>
			<v:textRect cx="17.0079" cy="607.265" width="58.72" height="23.9788"/>
			<g id="shadow58-219" v:groupContext="shadow" v:shadowOffsetX="0.345598" v:shadowOffsetY="-1.97279" v:shadowType="1"
					transform="matrix(1,0,0,1,0.345598,1.97279)" class="st1">
				<path d="M17.01 595.28 L34.02 578.27 L17.01 561.26 L0 578.27 L17.01 595.28 Z" class="st2"/>
			</g>
			<path d="M17.01 595.28 L34.02 578.27 L17.01 561.26 L0 578.27 L17.01 595.28 Z" class="st23"/>
			<text x="-6.99" y="611.26" class="st24" v:langID="2052"><v:paragraph v:horizAlign="1"/><v:tabList/>有无玩家</text>		</g>
		<g id="group60-224" transform="translate(130.394,-42.5197)" v:mID="60" v:groupContext="group" v:layerMember="0">
			<v:userDefs>
				<v:ud v:nameU="visVersion" v:prompt="" v:val="VT0(15):26"/>
				<v:ud v:nameU="RelationshipName" v:prompt="" v:val="VT4()"/>
				<v:ud v:nameU="ShowMulti" v:prompt="" v:val="VT0(0):26"/>
				<v:ud v:nameU="Identifying" v:prompt="" v:val="VT0(1):26"/>
				<v:ud v:nameU="DXBegin" v:prompt="" v:val="VT0(0):1"/>
				<v:ud v:nameU="DYBegin" v:prompt="" v:val="VT0(-0.029527559055118):1"/>
				<v:ud v:nameU="DXEnd" v:prompt="" v:val="VT0(0.029527559055118):1"/>
				<v:ud v:nameU="DYEnd" v:prompt="" v:val="VT0(0):1"/>
				<v:ud v:nameU="BeginAngle" v:prompt="" v:val="VT0(-1.5707963267949):32"/>
				<v:ud v:nameU="EndAngle" v:prompt="" v:val="VT0(0):32"/>
				<v:ud v:nameU="RelationshipName" v:prompt="" v:val="VT4(无玩家)"/>
				<v:ud v:nameU="DXBegin" v:prompt="" v:val="VT0(0.16181102362204):24"/>
				<v:ud v:nameU="DYBegin" v:prompt="" v:val="VT0(4.4408920985006E-016):24"/>
				<v:ud v:nameU="DXEnd" v:prompt="" v:val="VT0(0):24"/>
				<v:ud v:nameU="DYEnd" v:prompt="" v:val="VT0(0.16181102362205):24"/>
				<v:ud v:nameU="BeginAngle" v:prompt="" v:val="VT0(2.744492927054E-015):32"/>
				<v:ud v:nameU="EndAngle" v:prompt="" v:val="VT0(1.5707963267949):32"/>
			</v:userDefs>
			<title>直接关联.60</title>
			<desc>无玩家</desc>
			<g id="shape60-225" v:mID="60" v:groupContext="groupContent" v:layerMember="0">
				<v:textBlock v:margins="rect(4,4,4,4)" v:tabSpace="42.5197"/>
				<v:textRect cx="388.346" cy="595.276" width="60" height="23.9788"/>
				<path d="M0 595.28 L606.61 595.28 L606.61 425.2" class="st7"/>
				<rect v:rectContext="textBkgnd" x="370.346" y="587.288" width="36.0003" height="15.9752" class="st18"/>
				<text x="370.35" y="599.27" class="st25" v:langID="2052"><v:paragraph v:horizAlign="1"/><v:tabList/>无玩家</text>			</g>
		</g>
	</g>
</svg>
